<?xml version="1.0" encoding="UTF-8"?>
<svg width="526px" height="280px" viewBox="0 0 526 280" version="1.1" xmlns="http://www.w3.org/2000/svg" xmlns:xlink="http://www.w3.org/1999/xlink">
    <!-- Generator: Sketch 53.2 (72643) - https://sketchapp.com -->
    <title>Group 42</title>
    <desc>Created with Sketch.</desc>
    <g id="Website-v2" stroke="none" stroke-width="1" fill="none" fill-rule="evenodd">
        <g id="Group-42" transform="translate(0.000000, 0.017611)">
            <path d="M485.348199,221.061308 C484.762633,222.322569 484.178749,223.567013 483.596548,224.794641 C482.687911,226.701668 481.791053,228.571698 480.905973,230.404731 C480.51223,231.216983 480.118487,232.014101 479.73484,232.811218 C475.393573,241.675362 471.340042,249.515362 467.897316,255.962929 C461.534352,267.862429 449.18542,275.347547 435.686126,275.487254 L359.133439,276.319686 L358.325762,276.319686 L351.763381,276.390317 L346.150023,276.450857 L328.936395,276.637524 L328.239773,276.637524 L319.476472,276.73338 L319.208928,276.73338 L265.195493,277.318605 L216.982191,277.82311 L211.373881,277.88365 L176.542786,278.262028 L176.502403,278.262028 L153.912671,278.504191 L153.670368,278.504191 L82.2413853,279.276082 L60.8732663,279.508155 C59.0538052,279.528917 57.2347864,279.437935 55.4264909,279.235722 L55.4264909,279.235722 C54.8106367,279.165092 54.1947826,279.084371 53.5839765,278.988515 C43.6182387,277.451058 34.4804472,272.547408 27.6928632,265.094461 C18.5004832,254.989236 11.8119035,243.198965 7.3191972,230.404731 C6.66968984,228.558245 6.06393169,226.688215 5.50192273,224.794641 C-10.050918,172.250497 8.90931236,104.460227 43.0336886,59.0951816 C44.4639509,57.1982447 45.9177705,55.3483948 47.3951473,53.545632 L47.4304832,53.5052717 C57.9252433,40.6303167 69.6920955,29.8742807 82.2262413,22.2259924 C104.437374,8.64977619 129.046299,4.82563205 153.251385,16.2223888 C173.731059,25.8685149 192.852825,30.4040104 211.389024,31.6350014 C213.261827,31.7560825 215.134629,31.8468933 216.997335,31.9023888 C259.51651,33.2393257 299.365301,17.927614 346.160119,8.04437079 C348.022825,7.65085727 349.890579,7.26238881 351.773477,6.89410052 C385.1558,0.254821237 422.187815,-3.24644002 466.226433,4.1142807 C470.801716,4.86128157 475.316467,5.94041397 479.73484,7.34310953 C481.676632,7.96869511 483.547751,8.64136778 485.348199,9.36112754 C506.368007,17.9074339 517.83198,33.6984248 522.703285,53.4850915 C523.164335,55.3214879 523.563126,57.1898363 523.899658,59.0901366 C532.53676,106.685092 507.241309,174.197884 485.348199,221.061308 Z" id="Path" fill="#E3F4EE" fill-rule="nonzero"></path>
            <path d="M250.889504,224.794641 C250.686011,226.681666 250.370801,228.55498 249.945531,230.404731 L297.245147,230.404731 L297.245147,224.794641 L250.889504,224.794641 Z M211.389024,256.482569 L216.997335,256.437164 L216.997335,242.578425 C215.074053,242.492659 213.201251,242.406893 211.389024,242.316082 L211.389024,256.482569 Z M93.8113661,224.794641 L93.8113661,230.404731 L194.013861,230.404731 L194.013861,224.794641 L93.8113661,224.794641 Z M522.728525,53.5052717 L485.373439,53.5052717 L485.373439,9.36617259 C483.572991,8.63632274 481.701872,7.96365007 479.76008,7.34815457 L479.76008,53.5052717 L351.773477,53.5052717 L351.773477,6.87896538 C349.890579,7.24725367 348.022825,7.63572214 346.160119,8.02923565 L346.160119,53.5052717 L216.997335,53.5052717 L216.997335,31.8872537 C215.134629,31.8317582 213.261827,31.7409474 211.389024,31.6198663 L211.389024,53.5052717 L82.2262413,53.5052717 L82.2262413,22.2259924 C69.6920955,29.8742807 57.9252433,40.6303167 47.4304832,53.5052717 L47.3951473,53.5052717 L47.3951473,53.545632 C45.9144051,55.3618483 44.4605856,57.2116981 43.0336886,59.0951816 L47.3951473,59.0951816 L47.3951473,224.794641 L5.49687474,224.794641 C6.05551838,226.688215 6.66127654,228.558245 7.31414922,230.404731 L47.3900993,230.404731 L47.3900993,277.636443 C49.4064747,278.25278 51.4646454,278.723186 53.5486406,279.04401 C54.1594467,279.139866 54.7753008,279.220587 55.391155,279.291218 L55.391155,279.291218 C57.1994505,279.49343 59.0184693,279.584413 60.8379304,279.56365 L82.2060494,279.331578 L82.2060494,230.394641 L211.389024,230.394641 L211.389024,277.92401 L216.997335,277.86347 L216.997335,230.404731 L346.160119,230.404731 L346.160119,276.496263 L351.773477,276.435722 L351.773477,230.404731 L479.73484,230.404731 L479.73484,232.811218 C480.118487,232.014101 480.51223,231.216983 480.905973,230.404731 C481.791053,228.571698 482.687911,226.701668 483.596548,224.794641 C484.178749,223.570377 484.762633,222.325932 485.348199,221.061308 L485.348199,59.1153618 L523.924898,59.1153618 C523.585,57.201608 523.186209,55.331578 522.728525,53.5052717 Z M82.2262413,224.794641 L82.2262413,59.0951816 L211.389024,59.0951816 L211.389024,224.794641 L82.2262413,224.794641 Z M217.007431,224.794641 L217.007431,59.0951816 L346.160119,59.0951816 L346.160119,224.794641 L217.007431,224.794641 Z M479.744936,224.794641 L351.773477,224.794641 L351.773477,59.0951816 L479.73484,59.0951816 L479.744936,224.794641 Z" id="Shape" fill="#CFEFE4" fill-rule="nonzero"></path>
            <polygon id="Path" fill="#65617D" fill-rule="nonzero" points="435.681078 269.211218 435.681078 275.769776 358.992095 276.476082 358.174322 276.491218 329.027259 276.758605 328.330637 276.768695 319.471424 276.844371 319.208928 276.844371 265.205589 277.34383 176.55793 278.166173 176.482211 278.166173 153.942959 278.378064 153.700656 278.38311 53.5486406 279.301308 53.5486406 271.73374 77.0974889 257.607614 124.346625 257.214101 125.356222 257.209055 125.689389 257.20401 126.698986 257.188875 149.384629 257.002209 150.399274 256.997164 150.722345 256.992119 151.731942 256.987073 159.006088 256.926533 159.197911 256.921488 177.143497 256.770137 177.289888 256.770137 317.320982 255.589596 320.748564 255.564371 321.091827 255.564371 323.706683 255.539146 342.712345 255.382749 343.721942 255.367614 344.655819 255.357524 345.140426 255.357524 351.051616 255.312119 352.222748 255.296983 353.792671 255.286893 358.714456 255.241488 366.523689 255.175902 367.533285 255.165812 369.289984 255.155722 369.618103 255.155722 407.331596 254.832839"></polygon>
            <polygon id="Path" fill="#000000" fill-rule="nonzero" opacity="0.2" points="435.681078 269.211218 435.681078 275.769776 358.992095 276.476082 358.174322 276.491218 329.027259 276.758605 328.330637 276.768695 319.471424 276.844371 319.208928 276.844371 265.205589 277.34383 176.55793 278.166173 176.482211 278.166173 153.942959 278.378064 153.700656 278.38311 53.5486406 279.301308 53.5486406 271.73374 77.0974889 257.607614 124.346625 257.214101 125.356222 257.209055 125.689389 257.20401 126.698986 257.188875 149.384629 257.002209 150.399274 256.997164 150.722345 256.992119 151.731942 256.987073 159.006088 256.926533 159.197911 256.921488 177.143497 256.770137 177.289888 256.770137 317.320982 255.589596 320.748564 255.564371 321.091827 255.564371 323.706683 255.539146 342.712345 255.382749 343.721942 255.367614 344.655819 255.357524 345.140426 255.357524 351.051616 255.312119 352.222748 255.296983 353.792671 255.286893 358.714456 255.241488 366.523689 255.175902 367.533285 255.165812 369.289984 255.155722 369.618103 255.155722 407.331596 254.832839"></polygon>
            <path d="M149.465397,243.991037 L149.465397,256.346353 C149.465953,257.540828 148.778184,258.628833 147.698602,259.141308 C147.304763,259.332156 146.874215,259.435428 146.436606,259.44401 L128.81914,259.817344 C128.348636,259.828622 127.881977,259.730162 127.456184,259.529776 C126.356992,259.026257 125.652758,257.928134 125.654053,256.719686 L125.654051,243.991037 L149.465397,243.991037 Z" id="Path" fill="#3F3D56" fill-rule="nonzero"></path>
            <path d="M149.465397,243.991037 L149.465397,256.346353 C149.465953,257.540828 148.778184,258.628833 147.698602,259.141308 C147.304763,259.332156 146.874215,259.435428 146.436606,259.44401 L128.81914,259.817344 C128.348636,259.828622 127.881977,259.730162 127.456184,259.529776 C126.356992,259.026257 125.652758,257.928134 125.654053,256.719686 L125.654051,243.991037 L149.465397,243.991037 Z" id="Path" fill="#000000" fill-rule="nonzero" opacity="0.1"></path>
            <path d="M150.474994,243.991037 L150.474994,256.346353 C150.47555,257.540828 149.787781,258.628833 148.708199,259.141308 C148.31436,259.332156 147.883811,259.435428 147.446203,259.44401 L129.828737,259.817344 C129.358233,259.828622 128.891573,259.730162 128.465781,259.529776 C127.366589,259.026257 126.662355,257.928134 126.66365,256.719686 L126.663648,243.991037 L150.474994,243.991037 Z" id="Path" fill="#3F3D56" fill-rule="nonzero"></path>
            <rect id="Rectangle" fill="#3F3D56" fill-rule="nonzero" x="343.721942" y="243.985992" width="23.8113436" height="15.8918919"></rect>
            <rect id="Rectangle" fill="#000000" fill-rule="nonzero" opacity="0.1" x="343.721942" y="243.985992" width="23.8113436" height="15.8918919"></rect>
            <rect id="Rectangle" fill="#3F3D56" fill-rule="nonzero" x="342.712345" y="243.985992" width="23.8113436" height="15.8918919"></rect>
            <polygon id="Path" fill="#000000" fill-rule="nonzero" opacity="0.1" points="150.469946 243.985992 150.469946 246.49338 126.658602 247.129055 126.658602 243.985992"></polygon>
            <path d="M192.499466,157.569416 L192.499466,242.427073 C192.486764,243.50291 191.631776,244.379595 190.555992,244.419866 L93.8113661,246.992839 L93.7861262,246.992839 C92.6905831,246.979236 91.805783,246.094952 91.7921722,245.000046 L91.7921722,157.569416 C91.805783,156.474511 92.6905831,155.590226 93.7861262,155.576623 L190.505512,155.576623 C191.601055,155.590226 192.485855,156.474511 192.499466,157.569416 Z" id="Path" fill="#65617D" fill-rule="nonzero"></path>
            <path d="M93.8113661,155.576623 L93.8113661,246.992839 L93.7861262,246.992839 C92.6905831,246.979236 91.805783,246.094952 91.7921722,245.000046 L91.7921722,157.569416 C91.805783,156.474511 92.6905831,155.590226 93.7861262,155.576623 L93.8113661,155.576623 Z" id="Path" fill="#000000" fill-rule="nonzero" opacity="0.1"></path>
            <polygon id="Path" fill="#242739" fill-rule="nonzero" points="98.2233047 160.995001 187.825032 160.995001 187.825032 235.787794 98.2233047 237.805812"></polygon>
            <polygon id="Path" fill="#000000" fill-rule="nonzero" opacity="0.1" points="366.523689 243.985992 366.523689 247.219866 342.712345 246.584191 342.712345 243.985992"></polygon>
            <path d="M397.952441,157.569416 L397.952441,245.000046 C397.938624,246.104704 397.038634,246.992926 395.933247,246.992839 L395.933247,246.992839 L299.168429,244.419866 C298.092646,244.379595 297.237658,243.50291 297.224955,242.427073 L297.224955,157.569416 C297.238566,156.474511 298.123366,155.590226 299.218909,155.576623 L395.938295,155.576623 C397.041715,155.579294 397.938651,156.466721 397.952441,157.569416 Z" id="Path" fill="#65617D" fill-rule="nonzero"></path>
            <path d="M397.952441,157.569416 L397.952441,245.000046 C397.938624,246.104704 397.038634,246.992926 395.933247,246.992839 L395.933247,246.992839 L395.933247,155.576623 L395.933247,155.576623 C397.038634,155.576537 397.938624,156.464759 397.952441,157.569416 Z" id="Path" fill="#000000" fill-rule="nonzero" opacity="0.1"></path>
            <polygon id="Path" fill="#242739" fill-rule="nonzero" points="391.511213 160.995001 301.909485 160.995001 301.909485 235.787794 391.511213 237.805812"></polygon>
            <path d="M294.721155,157.569416 L294.721155,242.427073 C294.708453,243.50291 293.853465,244.379595 292.777681,244.419866 L196.033055,246.992839 L196.033055,246.992839 C194.927668,246.992926 194.027679,246.104704 194.013861,245.000046 L194.013861,157.569416 C194.027472,156.474511 194.912272,155.590226 196.007815,155.576623 L292.727201,155.576623 C293.822744,155.590226 294.707544,156.474511 294.721155,157.569416 Z" id="Path" fill="#65617D" fill-rule="nonzero"></path>
            <polygon id="Path" fill="#242739" fill-rule="nonzero" points="200.444994 160.995001 290.046721 160.995001 290.046721 235.787794 200.444994 237.805812"></polygon>
            <polygon id="Path" fill="#000000" fill-rule="nonzero" opacity="0.1" points="435.681078 269.211218 435.681078 275.769776 358.992095 276.476082 358.174322 276.491218 329.027259 276.758605 328.330637 276.768695 319.471424 276.844371 319.208928 276.844371 265.205589 277.34383 176.55793 278.166173 176.482211 278.166173 153.942959 278.378064 153.700656 278.38311 53.5486406 279.301308 53.5486406 271.73374 155.775378 271.062749 156.017681 271.062749 176.70937 270.921488 176.805282 270.921488 319.703631 269.978064 319.850023 269.978064 319.935838 269.973019 320.173094 269.973019 322.591078 269.957884 323.328084 269.957884 360.930522 269.705632 363.151635 269.695542 363.646337 269.690497"></polygon>
            <ellipse id="Oval" fill="#FBBEBE" fill-rule="nonzero" cx="245.962671" cy="150.400407" rx="25.9113052" ry="25.8962162"></ellipse>
            <path d="M271.879024,190.261308 C271.879024,190.261308 221.651577,196.315362 226.447163,190.261308 C228.183669,188.071758 228.663228,181.58383 228.567316,174.192839 C228.537028,171.947794 228.456261,169.622028 228.340157,167.306353 C227.784879,156.207254 226.447163,145.360407 226.447163,145.360407 C226.447163,145.360407 270.364629,124.675722 265.316644,141.072119 C263.297451,147.696263 263.958737,156.999326 265.493324,165.732299 C265.942595,168.280046 266.462537,170.777344 267.007719,173.148515 C268.338238,178.932118 269.964134,184.643857 271.879024,190.261308 L271.879024,190.261308 Z" id="Path" fill="#FBBEBE" fill-rule="nonzero"></path>
            <path d="M255.488218,188.207974 C261.298449,187.13338 267.451942,185.180947 272.918909,187.431037 C274.357585,188.021308 275.680157,188.88401 277.154168,189.378425 C278.62818,189.872839 280.243535,189.99392 281.778122,190.342028 C287.16937,191.562929 291.540925,195.664551 294.347604,200.432119 C297.154284,205.199686 298.608103,210.592839 300.031635,215.930497 L303.514744,228.961848 C306.543535,240.287974 309.572326,251.709956 310.273996,263.419506 C268.106474,265.831709 225.842648,266.072508 183.650349,264.140947 C186.396452,258.924371 189.203132,253.389956 188.970925,247.492299 C188.738717,241.594641 185.341424,235.777704 186.568084,229.965812 C187.350522,226.262749 189.88461,223.210497 191.434341,219.764731 C195.851328,209.916803 192.41365,196.66347 200.177451,189.166533 C203.670656,185.796443 208.759024,184.520046 213.620234,184.681488 C219.819159,184.888335 226.164476,186.820587 232.297777,187.76401 C240.152441,188.954641 247.572978,189.660947 255.488218,188.207974 Z" id="Path" fill="#BDDD81" fill-rule="nonzero"></path>
            <path d="M321.566337,244.29374 L321.515857,245.015182 L321.515857,245.065632 L321.430042,246.225992 L320.75866,255.564371 L319.945934,266.814821 L319.713727,269.98311 L319.208928,276.76365 L319.208928,276.849416 L265.195493,277.35392 L176.55793,278.312479 L176.55793,278.736263 L176.487259,278.736263 L176.487259,278.312479 L176.487259,278.171218 L176.714418,270.926533 L177.148545,256.770137 L177.522095,244.767974 L177.557431,243.572299 C177.602065,242.113789 178.245011,240.737839 179.335364,239.767398 C180.425717,238.796958 181.86747,238.317474 183.32223,238.441488 C185.704879,238.64329 188.799293,238.890497 192.499466,239.152839 L194.013861,239.26383 C215.38198,240.747073 254.872364,242.664191 294.721155,240.272839 C295.55912,240.227434 296.402134,240.176983 297.245147,240.116443 C303.423881,239.727974 309.597566,239.228515 315.710675,238.602929 C317.275058,238.439117 318.831702,238.976171 319.96182,240.069605 C321.091938,241.163039 321.679465,242.700556 321.566337,244.268515 L321.566337,244.29374 Z" id="Path" fill="#000000" fill-rule="nonzero" opacity="0.1"></path>
            <path d="M176.542786,278.736263 L176.542786,278.312479 L265.195493,277.348875 L319.208928,276.844371 L319.360368,276.844371 L319.360368,276.758605 L319.865166,269.978064 L320.08223,266.951037 L320.910099,255.544191 L321.561289,246.51356 L321.561289,246.291578 C321.591388,245.875459 321.572753,245.45725 321.505762,245.045452 C321.508586,245.028753 321.508586,245.0117 321.505762,244.995001 C321.36709,244.143562 321.020304,243.339487 320.496165,242.654101 C319.366141,241.205877 317.568366,240.442935 315.740963,240.636082 C309.627854,241.261668 303.454168,241.761128 297.275435,242.149596 C296.432422,242.210137 295.589408,242.260587 294.751443,242.305992 C254.902652,244.672119 215.412268,242.755001 194.044149,241.296983 L192.529754,241.185992 C188.829581,240.92365 185.735166,240.681488 183.352518,240.474641 C180.637709,240.24569 178.188494,242.103309 177.678583,244.778064 C177.627614,245.051198 177.59724,245.327772 177.587719,245.605452 L177.244456,256.785272 L176.774994,270.946713 L176.552882,278.191398 L176.552882,278.332659 L176.552882,278.756443 L176.542786,278.736263 Z" id="Path" fill="#3F3D56" fill-rule="nonzero"></path>
            <path d="M321.717777,247.830317 L321.096875,255.564371 L320.173094,267.092299 L319.940886,269.978064 L319.436088,276.440767 L319.4058,276.76365 L319.4058,276.849416 L319.4058,276.849416 L319.33008,277.596082 L319.385608,276.849416 L319.239216,276.849416 L265.225781,277.35392 L176.55793,278.312479 L176.55793,278.171218 L176.805282,270.926533 L177.31008,256.770137 L177.633151,247.361128 C177.665428,246.27361 178.246924,245.276527 179.177834,244.712479 C179.749454,244.362351 180.417811,244.203311 181.085973,244.258425 C182.146049,244.344191 183.448429,244.445092 184.967873,244.556082 C187.436337,244.737704 190.480272,244.949596 194.023957,245.171578 C200.586337,245.585272 208.8196,246.029236 218.254284,246.392479 C244.503804,247.401488 279.940656,247.739506 313.600618,244.7932 C315.115013,244.662028 316.679888,244.515722 318.209428,244.369416 C318.814857,244.309074 319.424845,244.424694 319.966126,244.702389 C320.119446,244.778713 320.264859,244.869966 320.400253,244.974821 C320.839694,245.293049 321.187832,245.72101 321.40985,246.215902 C321.46135,246.314363 321.503598,246.417387 321.536049,246.52365 C321.687692,246.941637 321.749609,247.386842 321.717777,247.830317 Z" id="Path" fill="#000000" fill-rule="nonzero" opacity="0.1"></path>
            <path d="M150.474994,254.736983 L150.474994,256.346353 C150.47555,257.540828 149.787781,258.628833 148.708199,259.141308 L128.465781,259.529776 C127.366589,259.026257 126.662355,257.928134 126.66365,256.719686 L126.66365,255.206173 L150.474994,254.736983 Z" id="Path" fill="#000000" fill-rule="nonzero" opacity="0.1"></path>
            <polygon id="Path" fill="#3F3D56" fill-rule="nonzero" points="150.722345 260.089776 124.346625 260.594281 124.346625 256.220227 150.722345 255.715722"></polygon>
            <polygon id="Path" fill="#000000" fill-rule="nonzero" opacity="0.1" points="150.722345 260.089776 124.346625 260.594281 124.346625 256.220227 150.722345 255.715722"></polygon>
            <polygon id="Path" fill="#3F3D56" fill-rule="nonzero" points="151.731942 260.089776 125.356222 260.594281 125.356222 256.220227 151.731942 255.715722"></polygon>
            <path d="M342.863784,255.745992 L342.863785,257.355362 C342.863228,258.549837 343.550997,259.637842 344.630579,260.150317 L364.872998,260.538785 C365.972189,260.035266 366.676423,258.937143 366.675128,257.728695 L366.675128,256.215182 L342.863784,255.745992 Z" id="Path" fill="#000000" fill-rule="nonzero" opacity="0.1"></path>
            <polygon id="Path" fill="#000000" fill-rule="nonzero" opacity="0.1" points="342.611385 261.098785 368.987105 261.60329 368.987105 257.229236 342.611385 256.724731"></polygon>
            <polygon id="Path" fill="#3F3D56" fill-rule="nonzero" points="341.601788 261.098785 367.977508 261.60329 367.977508 257.229236 341.601788 256.724731"></polygon>
            <path d="M229.571865,158.336263 C229.612249,161.867794 227.976702,165.197524 226.588506,168.461668 C221.534183,180.351951 219.345142,193.262537 220.197758,206.1532 C220.566261,211.702749 221.500138,217.252299 220.566261,222.751398 C219.632383,228.250497 216.310809,233.734461 210.97509,235.31356 C219.824207,240.585632 231.803074,240.030677 240.132249,233.971578 C244.569428,230.742749 247.875857,226.237524 251.111616,221.807974 C250.7273,229.765039 248.422077,237.510992 244.392748,244.384551 C259.121816,243.081189 272.607175,235.597148 281.500483,223.790677 C283.676165,220.859506 285.569159,217.640767 286.407124,214.089055 C287.966952,207.530497 285.79127,200.714641 284.130483,194.161128 C282.742638,188.68264 281.702365,183.122023 281.015877,177.512479 C280.798813,175.716443 280.622134,173.869956 281.066357,172.114281 C281.571155,170.060947 282.918967,168.325452 283.91342,166.45374 C286.740291,161.136263 286.805915,154.698785 285.357143,148.856623 C283.908372,143.014461 281.071404,137.626353 278.259677,132.30383 C276.008276,128.035722 273.565051,123.570857 269.445896,121.06347 C266.871424,119.499506 263.893113,118.848695 260.924898,118.218064 L248.118161,115.478605 C245.316529,114.878245 242.43413,114.277884 239.602211,114.716803 C234.821769,115.46347 231.454763,118.914281 228.496644,122.455902 C226.179619,125.210497 220.515781,130.381668 220.11699,133.988875 C219.753535,137.31356 222.691462,142.88329 223.191213,146.389596 C223.847451,150.930137 224.311865,149.416623 226.876241,152.201488 C228.496644,153.926893 229.541577,155.919686 229.571865,158.336263 Z" id="Path" fill="#3F3D56" fill-rule="nonzero"></path>
            <g id="Group-36" transform="translate(103.994571, 166.982389)">
                <rect id="Rectangle" fill="#BDDD81" x="0" y="0" width="9.94594595" height="1.22033898" rx="0.610169492"></rect>
                <rect id="Rectangle" fill="#02BAF2" x="4.97297297" y="3.05084746" width="17.4054054" height="1.22033898" rx="0.610169492"></rect>
                <rect id="Rectangle" fill="#02BAF2" x="4.97297297" y="15.2542373" width="4.97297297" height="1.22033898" rx="0.610169492"></rect>
                <rect id="Rectangle" fill="#02BAF2" x="4.97297297" y="19.5254237" width="19.8918919" height="1.22033898" rx="0.610169492"></rect>
                <rect id="Rectangle" fill="#86CD8D" x="9.94594595" y="6.10169492" width="6.83783784" height="1.22033898" rx="0.610169492"></rect>
                <rect id="Rectangle" fill="#86CD8D" x="9.94594595" y="12.2033898" width="5.59459459" height="1.22033898" rx="0.610169492"></rect>
                <rect id="Rectangle" fill-opacity="0.3" fill="#F1F1EE" x="9.94594595" y="9.15254237" width="24.8648649" height="1.22033898" rx="0.610169492"></rect>
                <rect id="Rectangle" fill-opacity="0.3" fill="#F1F1EE" x="36.0540541" y="9.15254237" width="8.08108108" height="1.22033898" rx="0.610169492"></rect>
                <rect id="Rectangle" fill-opacity="0.3" fill="#F1F1EE" x="18" y="6" width="11.1891892" height="1.22033898" rx="0.610169492"></rect>
                <rect id="Rectangle" fill="#86CD8D" x="30.4594595" y="6.10169492" width="11.1891892" height="1.22033898" rx="0.610169492"></rect>
                <rect id="Rectangle" fill="#86CD8D" x="9.94594595" y="22.5762712" width="6.83783784" height="1.22033898" rx="0.610169492"></rect>
                <rect id="Rectangle" fill-opacity="0.3" fill="#F1F1EE" x="9.94594595" y="28.6779661" width="16.7837838" height="1.22033898" rx="0.610169492"></rect>
                <rect id="Rectangle" fill="#02BAF2" x="4.97297297" y="34.779661" width="4.97297297" height="1.22033898" rx="0.610169492"></rect>
                <rect id="Rectangle" fill="#20C98B" x="9.94594595" y="31.7288136" width="4.97297297" height="1.22033898" rx="0.610169492"></rect>
                <rect id="Rectangle" fill-opacity="0.3" fill="#F1F1EE" x="27.972973" y="28.6779661" width="18.027027" height="1.22033898" rx="0.610169492"></rect>
                <rect id="Rectangle" fill-opacity="0.3" fill="#F1F1EE" x="9.94594595" y="25.6271186" width="13.0540541" height="1.22033898" rx="0.610169492"></rect>
                <rect id="Rectangle" fill-opacity="0.3" fill="#F1F1EE" x="31.0810811" y="25.6271186" width="10.5675676" height="1.22033898" rx="0.610169492"></rect>
                <rect id="Rectangle" fill="#86CD8D" x="24.2432432" y="25.6271186" width="5.59459459" height="1.22033898" rx="0.610169492"></rect>
                <rect id="Rectangle" fill-opacity="0.3" fill="#F1F1EE" x="18.027027" y="22.5762712" width="13.6756757" height="1.22033898" rx="0.610169492"></rect>
                <rect id="Rectangle" fill="#86CD8D" x="32.9459459" y="22.5762712" width="11.8108108" height="1.22033898" rx="0.610169492"></rect>
            </g>
            <path d="M325,172.982389 L368,172.982389 C369.104569,172.982389 370,173.877819 370,174.982389 L370,222.939383 C370,224.043952 369.104569,224.939383 368,224.939383 C367.985818,224.939383 367.971636,224.939232 367.957456,224.93893 L324.957456,224.024037 C323.869712,224.000893 323,223.11248 323,222.024489 L323,174.982389 C323,173.877819 323.895431,172.982389 325,172.982389 Z" id="Rectangle" fill="#FFFFFF" opacity="0.146809896"></path>
            <g id="Group-44" transform="translate(330.000000, 181.982389)">
                <rect id="Rectangle" fill="#FF5A5F" x="-1.42108547e-13" y="21" width="19.189189" height="1" rx="0.5"></rect>
                <rect id="Rectangle" fill="#FFFFFF" x="12" y="33" width="9.189189" height="1" rx="0.5"></rect>
                <rect id="Rectangle" fill="#FFFFFF" x="7" y="0" width="19" height="1.5" rx="0.75"></rect>
                <rect id="Rectangle" fill="#FFFFFF" x="0" y="5" width="34" height="4.5" rx="2.25"></rect>
                <rect id="Rectangle" stroke="#FF5A5F" stroke-width="0.3" fill="#FFFFFF" x="0" y="13" width="34" height="4.5" rx="2.25"></rect>
                <rect id="Rectangle" fill="#20C98B" x="0" y="25" width="34" height="4.5" rx="2.25"></rect>
                <rect id="Rectangle" fill="#242739" x="3" y="7" width="20.189189" height="1" rx="0.5"></rect>
                <g id="Group-43" transform="translate(3.000000, 14.800000)" fill="#242739">
                    <rect id="Rectangle" x="0" y="0" width="1" height="1" rx="0.5"></rect>
                    <rect id="Rectangle" x="2" y="0" width="1" height="1" rx="0.5"></rect>
                    <rect id="Rectangle" x="4" y="0" width="1" height="1" rx="0.5"></rect>
                    <rect id="Rectangle" x="6" y="0" width="1" height="1" rx="0.5"></rect>
                    <rect id="Rectangle" x="8" y="0" width="1" height="1" rx="0.5"></rect>
                    <rect id="Rectangle" x="10" y="0" width="1" height="1" rx="0.5"></rect>
                    <rect id="Rectangle" x="12" y="0" width="1" height="1" rx="0.5"></rect>
                    <rect id="Rectangle" x="14" y="0" width="1" height="1" rx="0.5"></rect>
                </g>
            </g>
        </g>
    </g>
</svg>