<svg xmlns="http://www.w3.org/2000/svg" data-name="Layer 1" width="1079.94368" height="779.70903"><rect id="backgroundrect" width="100%" height="100%" x="0" y="0" fill="none" stroke="none"/><title>begin chat</title><g class="currentLayer" style=""><title>Layer 1</title><path d="M521.6216499047852,18.500001782226562 c-105.4864,0 -191,56.81583 -191,126.9017 c0,31.29389 17.05887,59.9363 45.322,82.06248 V319.5678017822266 l60.5461,-60.54614 a271.67266,271.67266 0 0 0 85.13187,13.28173 c105.48639,0 191,-56.81583 191,-126.90169 S627.1080399047852,18.500001782226562 521.6216499047852,18.500001782226562 z" fill="#f2f2f2" id="svg_1"/><g opacity="0.3" id="svg_2" class="selected" fill="#69d5b1" fill-opacity="1"><path d="M842.5565499047851,650.1505717822265 a20.81252,20.81252 0 1 0 8.3387,-39.13277 l-0.98562,10.67947 l-3.7314,-9.80018 a20.73405,20.73405 0 0 0 -12.22123,10.10949 a20.4084,20.4084 0 0 0 -1.97438,5.40651 A20.80854,20.80854 0 0 0 842.5565499047851,650.1505717822265 z" fill="#69d5b1" id="svg_3" fill-opacity="1"/><path d="M849.9725799047851,776.6824017822265 c-0.49451000000000006,-9.27109 8.313320000000001,-16.18134 16.63109,-20.306 s17.89981,-7.97772 21.73547,-16.43263 c5.51252,-12.15118 -3.91862,-25.32906 -11.121,-36.56135 a125.3002,125.3002 0 0 1 -12.91856,-26.63091 c-1.29809,-3.7514700000000003 -2.42859,-7.6410800000000005 -2.34816,-11.61 c0.11584000000000001,-5.71565 2.71274,-11.052 5.29035,-16.15471 q12.88016,-25.49811 26.95418,-50.36938 " fill="#69d5b1" stroke="#3f3d56" stroke-miterlimit="10" id="svg_4" fill-opacity="1"/><path d="M843.7917599047852,647.5399917822266 a20.81252,20.81252 0 1 0 8.33869,-39.13278 l-0.98561,10.67948 l-3.7314,-9.80018 a20.734,20.734 0 0 0 -12.22123,10.10949 a20.40859,20.40859 0 0 0 -1.97439,5.4065 A20.80855,20.80855 0 0 0 843.7917599047852,647.5399917822266 z" fill="#69d5b1" stroke="#3f3d56" stroke-miterlimit="10" id="svg_5" fill-opacity="1"/><path d="M873.5520899047851,591.9589717822265 A20.788240000000002,20.788240000000002 0 0 1 890.2339199047851,580.9912017822265 l0.26936000000000004,10.32343 l4.64475,-10.1448 a20.81,20.81 0 1 1 -21.59594,10.78916 z" fill="#69d5b1" id="svg_6" fill-opacity="1"/><path d="M875.1990399047852,588.4782017822265 A20.7882,20.7882 0 0 1 891.8808399047851,577.5104017822266 l0.26936000000000004,10.32344 l4.64475,-10.14481 A20.81,20.81 0 1 1 875.1990399047852,588.4782017822265 z" fill="#69d5b1" stroke="#3f3d56" stroke-miterlimit="10" id="svg_7" fill-opacity="1"/><path d="M873.5718399047852,703.0747517822266 a20.81,20.81 0 0 0 23.42627,-34.07564 l-3.5691100000000002,7.796 l-0.26980000000000004,-10.44473 a0.3628200000000001,0.3628200000000001 0 0 0 -0.049630000000000014,-0.027320000000000007 A20.81113,20.81113 0 1 0 873.5718399047852,703.0747517822266 z" fill="#69d5b1" id="svg_8" fill-opacity="1"/><path d="M875.0743399047851,699.5256317822266 a20.81,20.81 0 0 0 23.42627,-34.07565 l-3.56912,7.796 L894.6616999047851,662.8012017822266 a0.36409,0.36409 0 0 0 -0.04964000000000001,-0.027320000000000007 a20.81113,20.81113 0 1 0 -19.53772,36.75173 z" fill="#69d5b1" stroke="#3f3d56" stroke-miterlimit="10" id="svg_9" fill-opacity="1"/><path d="M847.2745599047852,734.2594117822266 a20.80131,20.80131 0 1 0 6.25521,-15.57438 l7.225,15.11843 l-11.50663,-9.11037 A20.61639,20.61639 0 0 0 847.2745599047852,734.2594117822266 z" fill="#69d5b1" id="svg_10" fill-opacity="1"/><path d="M848.5097599047851,731.6488317822266 a20.80131,20.80131 0 1 0 6.25521,-15.57438 l7.225,15.11842 l-11.50663,-9.11037 A20.61655,20.61655 0 0 0 848.5097599047851,731.6488317822266 z" fill="#69d5b1" stroke="#3f3d56" stroke-miterlimit="10" id="svg_11" fill-opacity="1"/></g><g opacity="0.3" id="svg_12"><path d="M292.33083990478514,653.1505717822265 a20.81252,20.81252 0 1 1 -8.3387,-39.13277 l0.98562,10.67947 l3.7314,-9.80018 a20.73405,20.73405 0 0 1 12.22123,10.10949 a20.40878,20.40878 0 0 1 1.97439,5.40651 A20.80855,20.80855 0 0 1 292.33083990478514,653.1505717822265 z" fill="#ff6584" id="svg_13"/><path d="M284.9147799047852,779.6824017822265 c0.49451000000000006,-9.27109 -8.313320000000001,-16.18134 -16.63109,-20.306 s-17.89981,-7.97772 -21.73547,-16.43263 c-5.51252,-12.15118 3.91862,-25.32906 11.121,-36.56135 A125.3002,125.3002 0 0 0 270.58783990478514,679.7515417822266 c1.29809,-3.7514700000000003 2.42859,-7.6410800000000005 2.34816,-11.61 c-0.11584000000000001,-5.71565 -2.71274,-11.052 -5.29035,-16.15471 q-12.88016,-25.49811 -26.95418,-50.36938 " fill="none" stroke="#3f3d56" stroke-miterlimit="10" id="svg_14"/><path d="M291.09559990478516,650.5399917822266 a20.81252,20.81252 0 1 1 -8.33869,-39.13278 l0.98561,10.67948 l3.7314,-9.80018 a20.734,20.734 0 0 1 12.22124,10.10949 a20.40891,20.40891 0 0 1 1.97438,5.4065 A20.80855,20.80855 0 0 1 291.09559990478516,650.5399917822266 z" fill="none" stroke="#3f3d56" stroke-miterlimit="10" id="svg_15"/><path d="M261.33526990478515,594.9589717822265 A20.788240000000002,20.788240000000002 0 0 0 244.65343990478516,583.9912017822265 l-0.26935000000000003,10.32343 l-4.64476,-10.1448 a20.81,20.81 0 1 0 21.59594,10.78916 z" fill="#ff6584" id="svg_16"/><path d="M259.6883299047852,591.4782017822265 a20.78823,20.78823 0 0 0 -16.68183,-10.9678 l-0.26936000000000004,10.32344 l-4.64475,-10.14481 A20.81,20.81 0 1 0 259.6883299047852,591.4782017822265 z" fill="none" stroke="#3f3d56" stroke-miterlimit="10" id="svg_17"/><path d="M261.31550990478513,706.0747517822266 a20.81,20.81 0 0 1 -23.42627,-34.07564 l3.5691100000000002,7.796 l0.26980000000000004,-10.44473 a0.3628200000000001,0.3628200000000001 0 0 1 0.049630000000000014,-0.027320000000000007 a20.81113,20.81113 0 1 1 19.53773,36.75172 z" fill="#ff6584" id="svg_18"/><path d="M259.81301990478516,702.5256317822266 a20.81,20.81 0 0 1 -23.42627,-34.07565 l3.56912,7.796 l0.26979,-10.44474 a0.36409,0.36409 0 0 1 0.04964000000000001,-0.027320000000000007 a20.81113,20.81113 0 1 1 19.53772,36.75173 z" fill="none" stroke="#3f3d56" stroke-miterlimit="10" id="svg_19"/><path d="M287.6128399047852,737.2594117822266 a20.80131,20.80131 0 1 1 -6.25521,-15.57438 l-7.225,15.11843 l11.50663,-9.11037 A20.61639,20.61639 0 0 1 287.6128399047852,737.2594117822266 z" fill="#ff6584" id="svg_20"/><path d="M286.37759990478514,734.6488317822266 a20.80131,20.80131 0 1 1 -6.25521,-15.57438 l-7.225,15.11842 l11.50663,-9.11037 A20.61655,20.61655 0 0 1 286.37759990478514,734.6488317822266 z" fill="none" stroke="#3f3d56" stroke-miterlimit="10" id="svg_21"/></g><g opacity="0.3" id="svg_22"><path d="M812.3308399047852,652.1505717822265 a20.81252,20.81252 0 1 1 -8.3387,-39.13277 l0.98562,10.67947 l3.7314,-9.80018 a20.73405,20.73405 0 0 1 12.22123,10.10949 a20.40878,20.40878 0 0 1 1.97439,5.40651 A20.80855,20.80855 0 0 1 812.3308399047852,652.1505717822265 z" fill="#ff6584" id="svg_23"/><path d="M804.9147799047852,778.6824017822265 c0.49451000000000006,-9.27109 -8.313320000000001,-16.18134 -16.63109,-20.306 s-17.89981,-7.97772 -21.73547,-16.43263 c-5.51252,-12.15118 3.91862,-25.32906 11.121,-36.56135 A125.3002,125.3002 0 0 0 790.5878399047851,678.7515417822266 c1.29809,-3.7514700000000003 2.42859,-7.6410800000000005 2.34816,-11.61 c-0.11584000000000001,-5.71565 -2.71274,-11.052 -5.29035,-16.15471 q-12.88015,-25.49811 -26.95418,-50.36938 " fill="none" stroke="#3f3d56" stroke-miterlimit="10" id="svg_24"/><path d="M811.0955999047851,649.5399917822266 a20.81252,20.81252 0 1 1 -8.33869,-39.13278 l0.98561,10.67948 l3.7314,-9.80018 a20.734,20.734 0 0 1 12.22124,10.10949 a20.40891,20.40891 0 0 1 1.97438,5.4065 A20.80855,20.80855 0 0 1 811.0955999047851,649.5399917822266 z" fill="none" stroke="#3f3d56" stroke-miterlimit="10" id="svg_25"/><path d="M781.3352699047852,593.9589717822265 A20.788240000000002,20.788240000000002 0 0 0 764.6534399047852,582.9912017822265 l-0.26935000000000003,10.32343 l-4.64476,-10.1448 a20.81,20.81 0 1 0 21.59594,10.78916 z" fill="#ff6584" id="svg_26"/><path d="M779.6883299047852,590.4782017822265 a20.78823,20.78823 0 0 0 -16.68183,-10.9678 l-0.26936000000000004,10.32344 l-4.64475,-10.14481 A20.81,20.81 0 1 0 779.6883299047852,590.4782017822265 z" fill="none" stroke="#3f3d56" stroke-miterlimit="10" id="svg_27"/><path d="M781.3155099047851,705.0747517822266 a20.81,20.81 0 0 1 -23.42627,-34.07564 l3.5691100000000002,7.796 l0.26980000000000004,-10.44473 a0.3628200000000001,0.3628200000000001 0 0 1 0.049630000000000014,-0.027320000000000007 a20.81113,20.81113 0 1 1 19.53773,36.75172 z" fill="#ff6584" id="svg_28"/><path d="M779.8130199047852,701.5256317822266 a20.81,20.81 0 0 1 -23.42627,-34.07565 l3.56912,7.796 l0.26979,-10.44474 a0.36409,0.36409 0 0 1 0.04964000000000001,-0.027320000000000007 a20.81113,20.81113 0 1 1 19.53772,36.75173 z" fill="none" stroke="#3f3d56" stroke-miterlimit="10" id="svg_29"/><path d="M807.6128399047851,736.2594117822266 a20.80131,20.80131 0 1 1 -6.25521,-15.57438 l-7.225,15.11843 l11.50663,-9.11037 A20.61639,20.61639 0 0 1 807.6128399047851,736.2594117822266 z" fill="#ff6584" id="svg_30"/><path d="M806.3775999047851,733.6488317822266 a20.80131,20.80131 0 1 1 -6.25521,-15.57438 l-7.225,15.11842 l11.50663,-9.11037 A20.61655,20.61655 0 0 1 806.3775999047851,733.6488317822266 z" fill="none" stroke="#3f3d56" stroke-miterlimit="10" id="svg_31"/></g><g opacity="0.3" id="svg_32"><path d="M72.33083990478517,651.1505717822265 a20.81252,20.81252 0 1 1 -8.3387,-39.13277 l0.98562,10.67947 l3.7314,-9.80018 a20.73405,20.73405 0 0 1 12.22123,10.10949 a20.40878,20.40878 0 0 1 1.97439,5.40651 A20.80855,20.80855 0 0 1 72.33083990478517,651.1505717822265 z" fill="#ff6584" id="svg_33"/><path d="M64.91477990478515,777.6824017822265 c0.49451000000000006,-9.27109 -8.313320000000001,-16.18134 -16.63109,-20.306 S30.383839904785162,749.3987117822265 26.548219904785157,740.9438017822266 c-5.51252,-12.15118 3.91862,-25.32906 11.121,-36.56135 A125.3002,125.3002 0 0 0 50.587839904785156,677.7515417822266 c1.29809,-3.7514700000000003 2.42859,-7.6410800000000005 2.34816,-11.61 c-0.11584000000000001,-5.71565 -2.71274,-11.052 -5.29035,-16.15471 Q34.76546990478515,624.4887517822266 20.691439904785156,599.6174817822266 " fill="none" stroke="#3f3d56" stroke-miterlimit="10" id="svg_34"/><path d="M71.09559990478516,648.5399917822266 a20.81252,20.81252 0 1 1 -8.33869,-39.13278 l0.98561,10.67948 l3.7314,-9.80018 a20.734,20.734 0 0 1 12.22124,10.10949 a20.40891,20.40891 0 0 1 1.97438,5.4065 A20.80855,20.80855 0 0 1 71.09559990478516,648.5399917822266 z" fill="none" stroke="#3f3d56" stroke-miterlimit="10" id="svg_35"/><path d="M41.33526990478515,592.9589717822265 A20.788240000000002,20.788240000000002 0 0 0 24.65343990478516,581.9912017822265 l-0.26935000000000003,10.32343 l-4.64476,-10.1448 a20.81,20.81 0 1 0 21.59594,10.78916 z" fill="#ff6584" id="svg_36"/><path d="M39.68832990478515,589.4782017822265 a20.78823,20.78823 0 0 0 -16.68183,-10.9678 l-0.26936000000000004,10.32344 l-4.64475,-10.14481 A20.81,20.81 0 1 0 39.68832990478515,589.4782017822265 z" fill="none" stroke="#3f3d56" stroke-miterlimit="10" id="svg_37"/><path d="M41.31550990478516,704.0747517822266 A20.81,20.81 0 0 1 17.889239904785157,669.9991117822266 l3.5691100000000002,7.796 l0.26980000000000004,-10.44473 a0.3628200000000001,0.3628200000000001 0 0 1 0.049630000000000014,-0.027320000000000007 a20.81113,20.81113 0 1 1 19.53773,36.75172 z" fill="#ff6584" id="svg_38"/><path d="M39.81301990478515,700.5256317822266 a20.81,20.81 0 0 1 -23.42627,-34.07565 l3.56912,7.796 L20.22565990478516,663.8012017822266 a0.36409,0.36409 0 0 1 0.04964000000000001,-0.027320000000000007 a20.81113,20.81113 0 1 1 19.53772,36.75173 z" fill="none" stroke="#3f3d56" stroke-miterlimit="10" id="svg_39"/><path d="M67.61283990478516,735.2594117822266 a20.80131,20.80131 0 1 1 -6.25521,-15.57438 l-7.225,15.11843 l11.50663,-9.11037 A20.61639,20.61639 0 0 1 67.61283990478516,735.2594117822266 z" fill="#ff6584" id="svg_40"/><path d="M66.37759990478516,732.6488317822266 a20.80131,20.80131 0 1 1 -6.25521,-15.57438 l-7.225,15.11842 l11.50663,-9.11037 A20.61655,20.61655 0 0 1 66.37759990478516,732.6488317822266 z" fill="none" stroke="#3f3d56" stroke-miterlimit="10" id="svg_41"/></g><g opacity="0.3" id="svg_42" class="" fill="#69d5b1" fill-opacity="1"><path d="M66.73998990478516,558.8105717822266 a35.75043,35.75043 0 1 0 14.32368,-67.2198 l-1.693,18.34453 L72.96107990478515,493.10120178222655 a35.61557,35.61557 0 0 0 -20.99286,17.36543 a35.05685,35.05685 0 0 0 -3.39147,9.287 A35.74361,35.74361 0 0 0 66.73998990478516,558.8105717822266 z" fill="#69d5b1" id="svg_43" fill-opacity="1"/><path d="M79.47877990478514,776.1589017822265 c-0.84945,-15.92529 14.28009,-27.795279999999998 28.56782,-34.8803 s30.74716,-13.70362 37.33581,-28.22692 c9.46906,-20.87254 -6.73116,-43.50865 -19.103,-62.80278 a215.23227,215.23227 0 0 1 -22.19068,-45.74488 c-2.22978,-6.444 -4.17168,-13.12536 -4.03352,-19.94287 c0.19900000000000004,-9.818 4.65977,-18.98436 9.08742,-27.74952 q22.12471,-43.799 46.30019,-86.52133 " fill="#69d5b1" stroke="#3f3d56" stroke-miterlimit="10" id="svg_44" fill-opacity="1"/><path d="M68.86173990478517,554.3262717822265 a35.75043,35.75043 0 1 0 14.32369,-67.21979 l-1.693,18.34452 L75.08283990478515,488.6168817822265 a35.61559,35.61559 0 0 0 -20.99286,17.36544 a35.05651,35.05651 0 0 0 -3.39147,9.287 A35.74359,35.74359 0 0 0 68.86173990478517,554.3262717822265 z" fill="#69d5b1" stroke="#3f3d56" stroke-miterlimit="10" id="svg_45" fill-opacity="1"/><path d="M119.98215990478516,458.85274178222653 a35.70865,35.70865 0 0 1 28.655,-18.83978 l0.46268000000000004,17.73294 l7.97847,-17.4261 a35.746,35.746 0 1 1 -37.09613,18.53294 z" fill="#69d5b1" id="svg_46" fill-opacity="1"/><path d="M122.81116990478515,452.8736817822265 a35.70867,35.70867 0 0 1 28.655,-18.83978 l0.46268000000000004,17.73294 l7.97847,-17.4261 a35.746,35.746 0 1 1 -37.09613,18.53294 z" fill="#69d5b1" stroke="#3f3d56" stroke-miterlimit="10" id="svg_47" fill-opacity="1"/><path d="M120.01609990478516,649.7203617822265 a35.74611,35.74611 0 0 0 40.24015,-58.533 l-6.13079,13.39143 l-0.46344,-17.9413 a0.62351,0.62351 0 0 0 -0.08526000000000003,-0.04693000000000001 a35.748,35.748 0 1 0 -33.56066,63.12977 z" fill="#69d5b1" id="svg_48" fill-opacity="1"/><path d="M122.59697990478514,643.6239017822265 a35.74611,35.74611 0 0 0 40.24015,-58.533 l-6.1308,13.39142 l-0.46344,-17.94129 a0.62243,0.62243 0 0 0 -0.08526000000000003,-0.04693000000000001 a35.748,35.748 0 1 0 -33.56065,63.12977 z" fill="#69d5b1" stroke="#3f3d56" stroke-miterlimit="10" id="svg_49" fill-opacity="1"/><path d="M74.84427990478517,703.2873917822266 a35.73117,35.73117 0 1 0 10.7448,-26.75268 L97.99973990478514,702.5042017822266 l-19.76535,-15.64921 A35.41352,35.41352 0 0 0 74.84427990478517,703.2873917822266 z" fill="#69d5b1" id="svg_50" fill-opacity="1"/><path d="M76.96603990478516,698.8031017822266 a35.73116,35.73116 0 1 0 10.7448,-26.75269 l12.41066,25.96947 L80.35613990478515,682.3706717822265 A35.41353,35.41353 0 0 0 76.96603990478516,698.8031017822266 z" fill="#69d5b1" stroke="#3f3d56" stroke-miterlimit="10" id="svg_51" fill-opacity="1"/></g><g opacity="0.3" id="svg_52"><path d="M922.6636099047852,778.2724317822266 c-1.09964,-20.61569 18.48592,-35.98168 36.98174,-45.1534 s39.803,-17.73968 48.33212,-36.54044 c12.25792,-27.02 -8.71366,-56.323 -24.72931,-81.29973 A278.6237,278.6237 0 0 1 954.5218399047851,556.0610017822265 c-2.8865,-8.34195 -5.40034,-16.9911 -5.22149,-25.81653 c0.25758000000000003,-12.7096 6.03219,-24.57572 11.76389,-35.92244 q28.641000000000002,-56.69892 59.93672,-112.004 " fill="none" stroke="#3f3d56" stroke-miterlimit="10" id="svg_53"/><path d="M1045.0790599047853,340.2809717822266 l-20.13538,5.75293 l1.39819,-9.32147 c-1.7727,-0.11408000000000001 -3.57177,-0.17853000000000002 -5.39819,-0.17853000000000002 c-26.23352,0 -47.5,12.08832 -47.5,27 s21.26648,27 47.5,27 s47.5,-12.08832 47.5,-27 C1068.443679904785,353.63211178222656 1059.060839904785,344.9802017822266 1045.0790599047853,340.2809717822266 z" fill="#ff6584" id="svg_54"/><path d="M1045.0790599047853,337.2809717822266 l-20.13538,5.75293 l1.39819,-9.32147 c-1.7727,-0.11408000000000001 -3.57177,-0.17853000000000002 -5.39819,-0.17853000000000002 c-26.23352,0 -47.5,12.08832 -47.5,27 s21.26648,27 47.5,27 s47.5,-12.08832 47.5,-27 C1068.443679904785,350.63211178222656 1059.060839904785,341.9802017822266 1045.0790599047853,337.2809717822266 z" fill="none" stroke="#3f3d56" stroke-miterlimit="10" id="svg_55"/><path d="M986.0790599047853,683.2809717822265 l-20.13538,5.75293 l1.39819,-9.32147 c-1.7727,-0.11408000000000001 -3.57177,-0.17853000000000002 -5.39819,-0.17853000000000002 c-26.23352,0 -47.5,12.08832 -47.5,27 s21.26648,27 47.5,27 s47.5,-12.08832 47.5,-27 C1009.4436799047851,696.6321117822266 1000.0608399047851,687.9802017822266 986.0790599047853,683.2809717822265 z" fill="#ff6584" id="svg_56"/><path d="M986.0790599047853,680.2809717822265 l-20.13538,5.75293 l1.39819,-9.32147 c-1.7727,-0.11408000000000001 -3.57177,-0.17853000000000002 -5.39819,-0.17853000000000002 c-26.23352,0 -47.5,12.08832 -47.5,27 s21.26648,27 47.5,27 s47.5,-12.08832 47.5,-27 C1009.4436799047851,693.6321117822266 1000.0608399047851,684.9802017822266 986.0790599047853,680.2809717822265 z" fill="none" stroke="#3f3d56" stroke-miterlimit="10" id="svg_57"/><path d="M1056.0790599047853,611.2809717822265 l-20.13538,5.75293 l1.39819,-9.32147 c-1.7727,-0.11408000000000001 -3.57177,-0.17853000000000002 -5.39819,-0.17853000000000002 c-26.23352,0 -47.5,12.08832 -47.5,27 s21.26648,27 47.5,27 s47.5,-12.08832 47.5,-27 C1079.443679904785,624.6321117822266 1070.060839904785,615.9802017822266 1056.0790599047853,611.2809717822265 z" fill="#ff6584" id="svg_58"/><path d="M1056.0790599047853,608.2809717822265 l-20.13538,5.75293 l1.39819,-9.32147 c-1.7727,-0.11408000000000001 -3.57177,-0.17853000000000002 -5.39819,-0.17853000000000002 c-26.23352,0 -47.5,12.08832 -47.5,27 s21.26648,27 47.5,27 s47.5,-12.08832 47.5,-27 C1079.443679904785,621.6321117822266 1070.060839904785,612.9802017822266 1056.0790599047853,608.2809717822265 z" fill="none" stroke="#3f3d56" stroke-miterlimit="10" id="svg_59"/><path d="M973.308519904785,427.55137178222657 l-20.55989,-3.97753 l5.46353,-7.68079 c-1.5293700000000001,-0.9036200000000001 -3.1047000000000002,-1.77491 -4.73357,-2.60109 c-23.39613,-11.86672 -47.83058,-10.70574 -54.57587,2.5931100000000002 s6.75288,33.69958 30.149,45.56629 s47.83059,10.70574 54.57588,-2.5931 C988.1066699047851,450.0274317822266 983.6523799047852,438.0669917822266 973.308519904785,427.55137178222657 z" fill="#ff6584" id="svg_60"/><path d="M974.6655699047851,424.87585178222656 l-20.55989,-3.97753 l5.46353,-7.6808000000000005 c-1.5293700000000001,-0.90361 -3.1047000000000002,-1.77491 -4.73357,-2.60108 c-23.39613,-11.86672 -47.83059,-10.70574 -54.57587,2.5931 s6.75288,33.69958 30.149,45.5663 s47.83058,10.70574 54.57587,-2.5931100000000002 C989.4637099047852,447.3519117822266 985.0094299047851,435.3914717822266 974.6655699047851,424.87585178222656 z" fill="none" stroke="#3f3d56" stroke-miterlimit="10" id="svg_61"/><path d="M1018.308519904785,532.5513717822265 l-20.55989,-3.97753 l5.46353,-7.68079 c-1.5293700000000001,-0.9036200000000001 -3.1047000000000002,-1.77491 -4.73357,-2.60109 c-23.39613,-11.86672 -47.83058,-10.70574 -54.57587,2.5931100000000002 s6.75288,33.69958 30.149,45.56629 s47.83059,10.70574 54.57588,-2.5931 C1033.1066699047851,555.0274317822266 1028.6523799047852,543.0669917822265 1018.308519904785,532.5513717822265 z" fill="#ff6584" id="svg_62"/><path d="M1019.6655699047851,529.8758517822266 l-20.55989,-3.97753 l5.46353,-7.6808000000000005 c-1.5293700000000001,-0.90361 -3.1047000000000002,-1.77491 -4.73357,-2.60108 c-23.39613,-11.86672 -47.83059,-10.70574 -54.57587,2.5931 s6.75288,33.69958 30.149,45.5663 s47.83058,10.70574 54.57587,-2.5931100000000002 C1034.4637099047852,552.3519117822266 1030.009429904785,540.3914717822265 1019.6655699047851,529.8758517822266 z" fill="none" stroke="#3f3d56" stroke-miterlimit="10" id="svg_63"/></g><line x1="8.943679809570312" y1="778.0338745117188" x2="1060.9437255859375" y2="778.0338745117188" fill="none" stroke="#3f3d56" stroke-miterlimit="10" id="svg_64"/><path d="M535.1216499047852,0.5000017822265619 c-105.4864,0 -191,56.81583 -191,126.9017 c0,31.29389 17.05887,59.9363 45.322,82.06248 V301.5678017822266 l60.5461,-60.54614 a271.67266,271.67266 0 0 0 85.13187,13.28173 c105.48639,0 191,-56.81583 191,-126.90169 S640.6080399047852,0.5000017822265619 535.1216499047852,0.5000017822265619 z" fill="none" stroke="#3f3d56" stroke-miterlimit="10" id="svg_65"/><path d="M452.1317699047852,328.8644317822266 s-3.84207,-51.7406 -2.03317,-61.2037 s3.508,-36.40025 -6.43762,-27.54543 s-6.41234,28.945 -6.41234,28.945 s-9.43783,54.68156 -0.7088000000000001,62.10017 S452.1317699047852,328.8644317822266 452.1317699047852,328.8644317822266 z" fill="#a0616a" id="svg_66"/><path d="M459.2947299047852,380.0313317822266 s-29.60358,-26.4032 -28.00339,-48.80591 c0,0 17.60213,-13.60164 21.60261,-6.40077 s33.07874,35.293 28.14077,44.84978 S459.2947299047852,380.0313317822266 459.2947299047852,380.0313317822266 z" fill="#69d5b1" id="svg_67" class="" fill-opacity="1"/><path d="M564.1074099047852,332.82562178222656 s17.60213,-48.80591 18.40223,-58.40707 s6.40078,-36.00436 13.60165,-24.803 s-1.6002,29.60359 -1.6002,29.60359 s-5.60067,55.20668 -16.00193,60.00726 S564.1074099047852,332.82562178222656 564.1074099047852,332.82562178222656 z" fill="#a0616a" id="svg_68"/><path d="M516.1015999047852,577.6552017822265 h47.20572 l2.40029,24.0029 l-11.20136,2.40029 s-26.40319,-8.001 -41.605,-5.6006800000000005 S516.1015999047852,577.6552017822265 516.1015999047852,577.6552017822265 z" fill="#a0616a" id="svg_69"/><path d="M547.3053799047851,574.4548617822265 s22.40271,-15.20184 26.4032,-2.40029 s18.40222,59.20716 13.60164,64.00774 s-10.40126,-4.00048 -10.40126,-4.00048 s-9.60116,-20.00242 -16.802,-20.80252 s-11.20136,-7.20087 -11.20136,-7.20087 S569.7080899047852,588.0565017822265 547.3053799047851,574.4548617822265 z" fill="#2f2e41" id="svg_70"/><path d="M504.1001499047852,698.4698717822266 s8.80107,36.00435 7.20087,41.605 s25.6031,2.40029 25.6031,2.40029 l1.6002,-10.40126 s-16.00194,-25.60309 -16.00194,-36.80445 S504.1001499047852,698.4698717822266 504.1001499047852,698.4698717822266 z" fill="#a0616a" id="svg_71"/><path d="M536.9041199047851,724.8730617822266 s21.60262,16.00194 10.40126,24.00291 s-52.80639,28.80348 -52.80639,28.80348 s-15.20184,2.40029 -4.00048,-11.20135 s14.40174,-16.00194 15.20184,-23.20281 a35.12235,35.12235 0 0 1 4.9337800000000005,-13.50807 S521.7022799047852,752.0763617822265 536.9041199047851,724.8730617822266 z" fill="#2f2e41" id="svg_72"/><path d="M471.29617990478516,532.8498217822265 s-8.80106,83.21007 4.80058,109.61327 s29.60359,62.40755 28.80349,64.00775 s23.20281,-2.40029 23.20281,-9.60117 s-26.4032,-79.20958 -26.4032,-79.20958 s11.20136,-93.61133 20.00242,-100.01211 S471.29617990478516,532.8498217822265 471.29617990478516,532.8498217822265 z" fill="#2f2e41" id="svg_73"/><path d="M471.29617990478516,532.8498217822265 s-8.80106,83.21007 4.80058,109.61327 s29.60359,62.40755 28.80349,64.00775 s23.20281,-2.40029 23.20281,-9.60117 s-26.4032,-79.20958 -26.4032,-79.20958 s11.20136,-93.61133 20.00242,-100.01211 S471.29617990478516,532.8498217822265 471.29617990478516,532.8498217822265 z" opacity="0.1" id="svg_74"/><path d="M489.3798399047852,298.0214017822266 c-5.7190900000000005,1.0354700000000001 -11.38512,4.17742 -14.22925,9.54354 c-2.653,5.00556 -2.82174,11.69636 -7.04249,15.29089 c-2.51961,2.14579 -5.94042,2.6420000000000003 -8.75359,4.32764 a13.48165,13.48165 0 0 0 -6.20118,12.00756 c0.22526000000000004,4.41433 2.55341,8.52613 2.504,12.94662 c-0.06423000000000002,5.747 -4.03814,10.492 -7.77574,14.65147 l12.39544,2.30022 a12.33926,12.33926 0 0 0 5.7344100000000005,0.15205000000000002 c2.141,-0.6338100000000001 3.88,-2.3967 6.04427,-2.93423 c3.10353,-0.7708 6.17451,1.117 8.94366,2.792 c7.88245,4.76774 16.33437,8.36624 24.7557,11.94919 c2.4775,1.05409 5.2865,2.10927 7.73121,0.97222 c1.97439,-0.91831 3.20232,-3.06489 5.05944,-4.22647 c3.32564,-2.08013 7.50159,-0.51438 11.23869,0.51252 a37.15163,37.15163 0 0 0 25.38312,-2.16146 c-1.7120700000000002,-1.99985 -3.956,-3.39847 -5.80095,-5.26048 s-3.33756,-4.49874 -2.85015,-7.15065 c0.49706000000000006,-2.70439 2.82217,-4.50972 4.40694,-6.69233 a15.724,15.724 0 0 0 2.39236,-11.92405 a21.75365,21.75365 0 0 0 -5.70746,-10.80127 a57.05128,57.05128 0 0 1 -4.66873,-4.923 c-2.9161,-3.93793 -3.638,-9.15131 -4.57086,-14.06082 s-2.4057399999999998,-10.13442 -6.19237,-13.12385 c-6.0326,-4.76258 -15.829,-3.13919 -22.88141,-3.61191 C502.5710499047851,298.1460617822266 496.0881699047851,298.0214017822266 489.3798399047852,298.0214017822266 z" fill="#2f2e41" id="svg_75"/><path d="M449.69356990478514,476.0429517822265 l15.20184,37.60455 s-69.60843,76.0092 -30.40368,86.41046 s52.80639,-8.001 77.60939,6.40077 c0,0 12.00145,-18.40223 10.40126,-29.60358 c0,0 -34.40416,-6.40078 -52.80639,-5.6006800000000005 c0,0 49.606,-43.20523 54.40658,-44.80542 s20.80252,-27.20329 -4.00048,-48.00581 S501.6998399047851,446.43937178222654 501.6998399047851,446.43937178222654 z" fill="#2f2e41" id="svg_76"/><path d="M485.6979199047852,345.62720178222656 s2.4003,24.803 -8.001,28.00339 s40.80493,2.40029 40.80493,2.40029 s-12.00145,-7.20087 -6.40077,-22.40271 S485.6979199047852,345.62720178222656 485.6979199047852,345.62720178222656 z" fill="#a0616a" id="svg_77"/><path d="M485.6979199047852,345.62720178222656 s2.4003,24.803 -8.001,28.00339 s40.80493,2.40029 40.80493,2.40029 s-12.00145,-7.20087 -6.40077,-22.40271 S485.6979199047852,345.62720178222656 485.6979199047852,345.62720178222656 z" opacity="0.1" id="svg_78"/><path d="M540.1045099047851,388.8323917822266 s-4.80058,-24.803 -14.40174,-23.2028 s-28.80349,3.20038 -31.20378,4.80058 s-15.20184,4.87942 -15.20184,4.87942 s4.80058,-5.67952 0,-6.47962 s-20.00242,3.20039 -21.60261,6.40078 s-8.001,9.60116 -8.001,20.80251 s-4.80058,30.40368 -3.20039,38.40465 s-0.8001,26.4032 -5.6006800000000005,36.80446 s-0.8000900000000001,20.80251 7.20087,10.40126 s4.00049,0 10.40126,0.8000900000000001 S493.6988899047851,453.64020178222654 501.6998399047851,460.84111178222656 s16.00194,12.00145 17.60213,8.001 s-6.40077,-11.20136 -6.40077,-14.40175 s-12.80155,10.40126 0.8000900000000001,-17.60213 S514.5014099047852,400.8338517822266 540.1045099047851,388.8323917822266 z" fill="#69d5b1" id="svg_79" class="" fill-opacity="1"/><path d="M533.7037299047852,387.2322017822266 l6.40078,1.60019 s23.20281,-16.802 29.60358,-28.80348 s11.20136,-21.60262 11.20136,-21.60262 s-10.40126,-12.80155 -16.802,-8.001 s-35.20426,37.60456 -35.20426,37.60456 z" fill="#69d5b1" id="svg_80" class="" fill-opacity="1"/><circle cx="504.10015869140625" cy="337.6261901855469" r="24.80299949645996" fill="#a0616a" id="svg_81"/><path d="M482.1586099047852,330.4411117822266 a21.7837,21.7837 0 0 1 15.14908,-4.98222 c9.50754,0.58506 17.87685,7.35994 27.4,7.57163 a9.81952,9.81952 0 0 1 0.81893,-6.07049 c0.7385,-1.51341 1.904,-2.97985 1.74722,-4.6565 a5.67954,5.67954 0 0 0 -2.05426,-3.36417 c-5.5046800000000005,-5.21967 -13.11558,-7.90984 -20.69427,-8.24123 c-5.08113,-0.22219000000000003 -14.77917,-0.10179000000000002 -18.71994,3.74566 C482.43383990478515,317.73550178222655 482.8258399047852,326.1742017822266 482.1586099047852,330.4411117822266 z" fill="#2f2e41" id="svg_82"/><circle cx="535.1216430664062" cy="151.03390502929688" r="52" fill="#69d5b1" id="svg_83" class="" fill-opacity="1"/><ellipse cx="522.4158935546875" cy="131.44090270996094" rx="4.98730993270874" ry="6.531000137329102" fill="#444053" id="svg_84"/><ellipse cx="548.1836547851562" cy="131.44090270996094" rx="4.98730993270874" ry="6.531000137329102" fill="#444053" id="svg_85"/><path d="M566.2923199047851,151.98386178222657 c0,9.37813 -15.66245,25.174 -31.46754,25.174 s-30.87381,-16.15215 -30.87381,-25.53027 s14.74217,-0.80153 30.54726,-0.80153 S566.2923199047851,142.60574178222657 566.2923199047851,151.98386178222657 z" fill="#3f3d56" id="svg_86" class=""/><path d="M508.9318399047852,153.58693178222657 s28.40984,6.32319 52.27768,0.17811000000000002 c0,0 2.9208600000000002,0 0.92546,3.3770000000000002 a5.37878,5.37878 0 0 1 -2.18872,2.04678 c-4.60034,2.35056 -21.62977,9.29771 -48.86055,0.43734000000000006 a5.35606,5.35606 0 0 1 -3.53441,-3.62139 C507.2305999047852,154.84533178222657 507.3688399047852,153.74720178222657 508.9318399047852,153.58693178222657 z" fill="#f6f8fb" id="svg_87"/></g></svg>